<svg xmlns="http://www.w3.org/2000/svg" viewBox="0 0 200 333" width="200" height="333"
     role="img" aria-label="Hand-drawn queen chess piece on manila paper">
  <title>queen</title>
  <defs>
  <filter id="wobble" x="-25%" y="-25%" width="150%" height="150%">
    <feTurbulence type="fractalNoise" baseFrequency="0.045 0.06" numOctaves="2" seed="13" result="n"/>
    <feDisplacementMap in="SourceGraphic" in2="n" scale="3" xChannelSelector="R" yChannelSelector="G"/>
  </filter>
  <filter id="wobble2" x="-25%" y="-25%" width="150%" height="150%">
    <feTurbulence type="fractalNoise" baseFrequency="0.05 0.07" numOctaves="2" seed="33" result="n2"/>
    <feDisplacementMap in="SourceGraphic" in2="n2" scale="4.2" xChannelSelector="R" yChannelSelector="G"/>
  </filter>
  <filter id="grain" x="-10%" y="-10%" width="120%" height="120%">
    <feTurbulence type="fractalNoise" baseFrequency="0.85" numOctaves="3" seed="37" result="noise"/>
    <feColorMatrix in="noise" type="matrix"
      values="0 0 0 0 0.18  0 0 0 0 0.13  0 0 0 0 0.06  0 0 0 0.35 0" result="tinted"/>
    <feComposite in="tinted" in2="SourceAlpha" operator="in" result="grainShape"/>
    <feBlend in="SourceGraphic" in2="grainShape" mode="multiply"/>
  </filter>
</defs>
  <g transform="translate(0,-7)" filter="url(#grain)">

    <path d="M 26.0,306.0 Q 23.0,298.0 31.0,293.5 Q 39.0,289.0 43.0,277.5 Q 47.0,266.0 53.0,259.0 Q 59.0,252.0 56.0,249.0 Q 53.0,246.0 59.0,242.0 Q 65.0,238.0 71.0,221.5 Q 77.0,205.0 75.0,188.5 Q 73.0,172.0 70.0,161.0 Q 67.0,150.0 63.0,146.0 Q 59.0,142.0 64.5,138.0 Q 70.0,134.0 100.0,134.0 Q 130.0,134.0 135.5,138.0 Q 141.0,142.0 137.0,146.0 Q 133.0,150.0 130.0,161.0 Q 127.0,172.0 125.0,188.5 Q 123.0,205.0 129.0,221.5 Q 135.0,238.0 141.0,242.0 Q 147.0,246.0 144.0,249.0 Q 141.0,252.0 147.0,259.0 Q 153.0,266.0 157.0,277.5 Q 161.0,289.0 169.0,293.5 Q 177.0,298.0 175.5,302.0 L 174.0,306.0 Z" fill="#4a3624" stroke="#efe2bd" stroke-width="3.2"
          stroke-linejoin="round" stroke-linecap="round" filter="url(#wobble)" />
    <path d="M 26.0,306.0 Q 23.0,298.0 31.0,293.5 Q 39.0,289.0 43.0,277.5 Q 47.0,266.0 53.0,259.0 Q 59.0,252.0 56.0,249.0 Q 53.0,246.0 59.0,242.0 Q 65.0,238.0 71.0,221.5 Q 77.0,205.0 75.0,188.5 Q 73.0,172.0 70.0,161.0 Q 67.0,150.0 63.0,146.0 Q 59.0,142.0 64.5,138.0 Q 70.0,134.0 100.0,134.0 Q 130.0,134.0 135.5,138.0 Q 141.0,142.0 137.0,146.0 Q 133.0,150.0 130.0,161.0 Q 127.0,172.0 125.0,188.5 Q 123.0,205.0 129.0,221.5 Q 135.0,238.0 141.0,242.0 Q 147.0,246.0 144.0,249.0 Q 141.0,252.0 147.0,259.0 Q 153.0,266.0 157.0,277.5 Q 161.0,289.0 169.0,293.5 Q 177.0,298.0 175.5,302.0 L 174.0,306.0 Z" fill="none" stroke="#f6efd6" stroke-width="1.5" opacity="0.35"
          stroke-linejoin="round" stroke-linecap="round" filter="url(#wobble2)"/>
<circle cx="100" cy="116" r="18" fill="#4a3624" stroke="#efe2bd" stroke-width="3" filter="url(#wobble)"/><circle cx="100" cy="116" r="18" fill="none" stroke="#f6efd6" stroke-width="1.3" opacity="0.35" filter="url(#wobble2)"/>
    <path d="M 82.0,100.0 Q 70.0,86.0 65.5,80.0 Q 61.0,74.0 100.0,74.0 Q 139.0,74.0 134.5,80.0 Q 130.0,86.0 124.0,93.0 L 118.0,100.0 Z" fill="#4a3624" stroke="#efe2bd" stroke-width="3.2"
          stroke-linejoin="round" stroke-linecap="round" filter="url(#wobble)" />
    <path d="M 82.0,100.0 Q 70.0,86.0 65.5,80.0 Q 61.0,74.0 100.0,74.0 Q 139.0,74.0 134.5,80.0 Q 130.0,86.0 124.0,93.0 L 118.0,100.0 Z" fill="none" stroke="#f6efd6" stroke-width="1.5" opacity="0.35"
          stroke-linejoin="round" stroke-linecap="round" filter="url(#wobble2)"/>
<path d="M 62.0,76 Q 100.0,82 138.0,76" fill="none" stroke="#efe2bd" stroke-width="2.4" opacity="0.85"
          stroke-linejoin="round" stroke-linecap="round" filter="url(#wobble)"/>
    <path d="M 59.0,76 Q 58.0,67.0 68.0,58.0 Q 78.0,67.0 77.0,76 Z" fill="#4a3624" stroke="#efe2bd" stroke-width="3.2"
          stroke-linejoin="round" stroke-linecap="round" filter="url(#wobble)" />
    <path d="M 59.0,76 Q 58.0,67.0 68.0,58.0 Q 78.0,67.0 77.0,76 Z" fill="none" stroke="#f6efd6" stroke-width="1.5" opacity="0.35"
          stroke-linejoin="round" stroke-linecap="round" filter="url(#wobble2)"/>
<circle cx="68" cy="56" r="4.4" fill="#4a3624" stroke="#efe2bd" stroke-width="2.2" filter="url(#wobble)"/>
    <path d="M 75.0,76 Q 74.0,61.0 84.0,46.0 Q 94.0,61.0 93.0,76 Z" fill="#4a3624" stroke="#efe2bd" stroke-width="3.2"
          stroke-linejoin="round" stroke-linecap="round" filter="url(#wobble)" />
    <path d="M 75.0,76 Q 74.0,61.0 84.0,46.0 Q 94.0,61.0 93.0,76 Z" fill="none" stroke="#f6efd6" stroke-width="1.5" opacity="0.35"
          stroke-linejoin="round" stroke-linecap="round" filter="url(#wobble2)"/>
<circle cx="84" cy="44" r="4.4" fill="#4a3624" stroke="#efe2bd" stroke-width="2.2" filter="url(#wobble)"/>
    <path d="M 91.0,76 Q 90.0,55.0 100.0,34.0 Q 110.0,55.0 109.0,76 Z" fill="#4a3624" stroke="#efe2bd" stroke-width="3.2"
          stroke-linejoin="round" stroke-linecap="round" filter="url(#wobble)" />
    <path d="M 91.0,76 Q 90.0,55.0 100.0,34.0 Q 110.0,55.0 109.0,76 Z" fill="none" stroke="#f6efd6" stroke-width="1.5" opacity="0.35"
          stroke-linejoin="round" stroke-linecap="round" filter="url(#wobble2)"/>
<circle cx="100" cy="32" r="4.4" fill="#4a3624" stroke="#efe2bd" stroke-width="2.2" filter="url(#wobble)"/>
    <path d="M 107.0,76 Q 106.0,61.0 116.0,46.0 Q 126.0,61.0 125.0,76 Z" fill="#4a3624" stroke="#efe2bd" stroke-width="3.2"
          stroke-linejoin="round" stroke-linecap="round" filter="url(#wobble)" />
    <path d="M 107.0,76 Q 106.0,61.0 116.0,46.0 Q 126.0,61.0 125.0,76 Z" fill="none" stroke="#f6efd6" stroke-width="1.5" opacity="0.35"
          stroke-linejoin="round" stroke-linecap="round" filter="url(#wobble2)"/>
<circle cx="116" cy="44" r="4.4" fill="#4a3624" stroke="#efe2bd" stroke-width="2.2" filter="url(#wobble)"/>
    <path d="M 123.0,76 Q 122.0,67.0 132.0,58.0 Q 142.0,67.0 141.0,76 Z" fill="#4a3624" stroke="#efe2bd" stroke-width="3.2"
          stroke-linejoin="round" stroke-linecap="round" filter="url(#wobble)" />
    <path d="M 123.0,76 Q 122.0,67.0 132.0,58.0 Q 142.0,67.0 141.0,76 Z" fill="none" stroke="#f6efd6" stroke-width="1.5" opacity="0.35"
          stroke-linejoin="round" stroke-linecap="round" filter="url(#wobble2)"/>
<circle cx="132" cy="56" r="4.4" fill="#4a3624" stroke="#efe2bd" stroke-width="2.2" filter="url(#wobble)"/><path d="M 53.0,246 Q 100.0,252 147.0,246" fill="none" stroke="#efe2bd" stroke-width="2.2" opacity="0.85"
          stroke-linejoin="round" stroke-linecap="round" filter="url(#wobble)"/><path d="M 69.0,142 Q 100.0,148 131.0,142" fill="none" stroke="#efe2bd" stroke-width="2.2" opacity="0.85"
          stroke-linejoin="round" stroke-linecap="round" filter="url(#wobble)"/><path d="M 39.0,292 Q 100.0,298 161.0,292" fill="none" stroke="#efe2bd" stroke-width="2.0" opacity="0.7"
          stroke-linejoin="round" stroke-linecap="round" filter="url(#wobble)"/>
    <path d="M 34.0,296 l -6,7" stroke="#efe2bd" stroke-width="2" fill="none" stroke-linecap="round"/>
    <path d="M 30.0,292 l -5,4" stroke="#efe2bd" stroke-width="1.6" fill="none" stroke-linecap="round" opacity="0.7"/>
    <path d="M 170.0,294 l 7,8" stroke="#efe2bd" stroke-width="2" fill="none" stroke-linecap="round"/>
    <path d="M 174.0,290 l 5,3" stroke="#efe2bd" stroke-width="1.6" fill="none" stroke-linecap="round" opacity="0.7"/>

  </g>
</svg>
